<svg width="125" height="16" viewBox="0 0 125 16" fill="none" xmlns="http://www.w3.org/2000/svg">
<path d="M0.992 4.16H4.832V15.2H0.992V4.16ZM4.944 0.0479994V2.448H0.88V0.0479994H4.944ZM13.9881 12.24C12.2921 12.24 10.8788 12.1013 9.74813 11.824C8.62813 11.5467 7.78546 11.104 7.22013 10.496C6.66546 9.888 6.38813 9.088 6.38813 8.096C6.38813 7.104 6.66546 6.304 7.22013 5.696C7.78546 5.07733 8.62813 4.62933 9.74813 4.352C10.8788 4.064 12.2921 3.92 13.9881 3.92C15.6735 3.92 17.0708 4.064 18.1801 4.352C19.3001 4.62933 20.1375 5.07733 20.6921 5.696C21.2468 6.304 21.5241 7.104 21.5241 8.096C21.5241 9.088 21.2468 9.888 20.6921 10.496C20.1375 11.104 19.3001 11.5467 18.1801 11.824C17.0708 12.1013 15.6735 12.24 13.9881 12.24ZM13.9881 9.92C14.7775 9.92 15.4388 9.856 15.9721 9.728C16.5055 9.58933 16.9108 9.38667 17.1881 9.12C17.4655 8.84267 17.6041 8.50133 17.6041 8.096C17.6041 7.69067 17.4655 7.34933 17.1881 7.072C16.9215 6.79467 16.5215 6.58667 15.9881 6.448C15.4548 6.30933 14.7881 6.24 13.9881 6.24C13.1988 6.24 12.5268 6.30933 11.9721 6.448C11.4281 6.58667 11.0121 6.79467 10.7241 7.072C10.4468 7.33867 10.3081 7.68 10.3081 8.096C10.3081 8.50133 10.4468 8.84267 10.7241 9.12C11.0015 9.38667 11.4121 9.58933 11.9561 9.728C12.5108 9.856 13.1881 9.92 13.9881 9.92ZM33.6461 12V9.088C33.6461 8.608 33.5501 8.20267 33.3581 7.872C33.1661 7.54133 32.8248 7.296 32.3341 7.136C31.8541 6.96533 31.1715 6.88 30.2861 6.88C29.7848 6.88 29.2941 6.928 28.8141 7.024C28.3448 7.10933 27.9181 7.216 27.5341 7.344C27.1608 7.472 26.8621 7.6 26.6381 7.728L26.6061 6.96C26.6488 6.8 26.7928 6.56 27.0381 6.24C27.2941 5.90933 27.6621 5.568 28.1421 5.216C28.6221 4.85333 29.2248 4.54933 29.9501 4.304C30.6861 4.048 31.5555 3.92 32.5581 3.92C33.1875 3.92 33.7955 3.97867 34.3821 4.096C34.9688 4.21333 35.4915 4.41067 35.9501 4.688C36.4195 4.95467 36.7928 5.31733 37.0701 5.776C37.3475 6.23467 37.4861 6.80533 37.4861 7.488V12H33.6461ZM22.9581 12V0.959999H26.7981V12H22.9581ZM38.9231 4.16H42.7631V12H38.9231V4.16ZM48.5231 3.92C49.1525 3.92 49.7605 3.98933 50.3471 4.128C50.9338 4.256 51.4565 4.48 51.9151 4.8C52.3845 5.12 52.7578 5.55733 53.0351 6.112C53.3125 6.66667 53.4511 7.36533 53.4511 8.208V12H49.6111V8.688C49.6111 7.888 49.4031 7.32267 48.9871 6.992C48.5711 6.65067 47.8191 6.48 46.7311 6.48C46.1551 6.48 45.5951 6.544 45.0511 6.672C44.5178 6.8 44.0378 6.95467 43.6111 7.136C43.1845 7.30667 42.8485 7.47733 42.6031 7.648L42.5711 7.04C42.6138 6.848 42.7578 6.58133 43.0031 6.24C43.2591 5.888 43.6271 5.536 44.1071 5.184C44.5871 4.832 45.1898 4.53333 45.9151 4.288C46.6511 4.04267 47.5205 3.92 48.5231 3.92ZM67.285 10.56L65.461 10.528L69.493 4.16H73.733L68.149 12H64.533L59.205 4.16H63.429L67.285 10.56ZM81.3319 12.24C79.6359 12.24 78.2225 12.1013 77.0919 11.824C75.9719 11.5467 75.1292 11.104 74.5639 10.496C74.0092 9.888 73.7319 9.088 73.7319 8.096C73.7319 7.104 74.0092 6.304 74.5639 5.696C75.1292 5.07733 75.9719 4.62933 77.0919 4.352C78.2225 4.064 79.6359 3.92 81.3319 3.92C83.0172 3.92 84.4145 4.064 85.5239 4.352C86.6439 4.62933 87.4812 5.07733 88.0359 5.696C88.5905 6.304 88.8679 7.104 88.8679 8.096C88.8679 9.088 88.5905 9.888 88.0359 10.496C87.4812 11.104 86.6439 11.5467 85.5239 11.824C84.4145 12.1013 83.0172 12.24 81.3319 12.24ZM81.3319 9.92C82.1212 9.92 82.7825 9.856 83.3159 9.728C83.8492 9.58933 84.2545 9.38667 84.5319 9.12C84.8092 8.84267 84.9479 8.50133 84.9479 8.096C84.9479 7.69067 84.8092 7.34933 84.5319 7.072C84.2652 6.79467 83.8652 6.58667 83.3319 6.448C82.7985 6.30933 82.1319 6.24 81.3319 6.24C80.5425 6.24 79.8705 6.30933 79.3159 6.448C78.7719 6.58667 78.3559 6.79467 78.0679 7.072C77.7905 7.33867 77.6519 7.68 77.6519 8.096C77.6519 8.50133 77.7905 8.84267 78.0679 9.12C78.3452 9.38667 78.7559 9.58933 79.2999 9.728C79.8545 9.856 80.5319 9.92 81.3319 9.92ZM90.3819 0.959999H94.2219V12H90.3819V0.959999ZM103.348 12.24C101.652 12.24 100.238 12.1013 99.1075 11.824C97.9875 11.5467 97.1448 11.104 96.5795 10.496C96.0248 9.888 95.7475 9.088 95.7475 8.096C95.7475 7.104 96.0248 6.304 96.5795 5.696C97.1448 5.07733 97.9875 4.62933 99.1075 4.352C100.238 4.064 101.652 3.92 103.348 3.92C105.033 3.92 106.43 4.064 107.54 4.352C108.66 4.62933 109.497 5.07733 110.052 5.696C110.606 6.304 110.884 7.104 110.884 8.096C110.884 9.088 110.606 9.888 110.052 10.496C109.497 11.104 108.66 11.5467 107.54 11.824C106.43 12.1013 105.033 12.24 103.348 12.24ZM103.348 9.92C104.137 9.92 104.798 9.856 105.332 9.728C105.865 9.58933 106.27 9.38667 106.548 9.12C106.825 8.84267 106.964 8.50133 106.964 8.096C106.964 7.69067 106.825 7.34933 106.548 7.072C106.281 6.79467 105.881 6.58667 105.348 6.448C104.814 6.30933 104.148 6.24 103.348 6.24C102.558 6.24 101.886 6.30933 101.332 6.448C100.788 6.58667 100.372 6.79467 100.084 7.072C99.8062 7.33867 99.6675 7.68 99.6675 8.096C99.6675 8.50133 99.8062 8.84267 100.084 9.12C100.361 9.38667 100.772 9.58933 101.316 9.728C101.87 9.856 102.548 9.92 103.348 9.92ZM112.078 9.184H115.614C115.763 9.46133 116.046 9.65333 116.462 9.76C116.888 9.86667 117.496 9.92 118.286 9.92C118.894 9.92 119.342 9.888 119.63 9.824C119.928 9.76 120.12 9.67467 120.206 9.568C120.302 9.46133 120.35 9.34933 120.35 9.232C120.35 9.05067 120.248 8.928 120.046 8.864C119.854 8.78933 119.523 8.74667 119.054 8.736C118.584 8.71467 117.939 8.704 117.118 8.704C116.339 8.704 115.64 8.672 115.022 8.608C114.414 8.53333 113.896 8.42133 113.47 8.272C113.043 8.112 112.718 7.89333 112.493 7.616C112.27 7.33867 112.158 6.992 112.158 6.576C112.158 6.064 112.323 5.63733 112.654 5.296C112.984 4.944 113.432 4.672 113.998 4.48C114.563 4.27733 115.214 4.13333 115.95 4.048C116.696 3.96267 117.475 3.92 118.286 3.92C119.63 3.92 120.728 4.05867 121.582 4.336C122.435 4.60267 123.064 4.96533 123.47 5.424C123.875 5.88267 124.072 6.4 124.062 6.976H120.622C120.504 6.69867 120.28 6.50667 119.95 6.4C119.63 6.29333 119.075 6.24 118.286 6.24C117.539 6.24 116.995 6.29867 116.654 6.416C116.323 6.52267 116.158 6.69867 116.158 6.944C116.158 7.104 116.238 7.22667 116.398 7.312C116.568 7.38667 116.883 7.44 117.342 7.472C117.811 7.504 118.494 7.52 119.39 7.52C120.008 7.52 120.611 7.54133 121.198 7.584C121.795 7.62667 122.328 7.71733 122.798 7.856C123.278 7.99467 123.656 8.208 123.934 8.496C124.211 8.784 124.35 9.17867 124.35 9.68C124.35 10.288 124.099 10.784 123.598 11.168C123.107 11.5413 122.408 11.8133 121.502 11.984C120.595 12.1547 119.523 12.24 118.286 12.24C117.208 12.24 116.296 12.1707 115.549 12.032C114.814 11.8933 114.211 11.712 113.742 11.488C113.272 11.2533 112.91 11.0027 112.654 10.736C112.408 10.4587 112.243 10.1867 112.158 9.92C112.083 9.64267 112.056 9.39733 112.078 9.184Z" fill="white"/>
</svg>
